<?xml version="1.0" encoding="iso-8859-1"?>
<!-- Generator: Adobe Illustrator 19.0.0, SVG Export Plug-In . SVG Version: 6.00 Build 0)  -->
<svg version="1.1" id="Capa_1" xmlns="http://www.w3.org/2000/svg" xmlns:xlink="http://www.w3.org/1999/xlink" x="0px" y="0px"
	 viewBox="0 0 512 512" style="enable-background:new 0 0 512 512;" xml:space="preserve">
<g>
	<g>
		<path d="M474.318,190.528c0-0.154,0-0.308-0.01-0.462c-0.452-7.565-5.225-13.919-11.815-16.753V86.912
			c0-6.703-1.694-13.529-4.825-19.381c-0.051-0.103-32.263-60.893-32.52-61.293c-4.701-7.719-16.363-7.678-20.92,0.739
			l-13.56,25.632l-15.603,29.481c-0.062-0.113-29.481-55.606-29.635-55.852c-4.999-8.027-16.64-7.36-20.92,0.739l-13.56,25.632
			l-15.644,29.553c-3.695-6.97-29.461-55.596-29.676-55.924c-4.034-6.621-13.529-7.699-18.99-1.94
			c-1.673,1.766-0.595,0.164-15.49,28.311c-0.01,0.01-0.01,0.031-0.021,0.041L215.73,61.773l-15.736-29.676
			c-14.33-26.874-13.54-25.991-14.977-27.736c-5.523-6.498-15.5-5.574-19.76,1.714c-0.164,0.257,1.889-3.583-29.379,55.524
			l-15.644-29.502L106.633,6.433c-4.619-8.746-17.174-8.356-21.341,0L53.254,67.008c-3.151,5.933-4.814,12.636-4.814,19.36v87.448
			c-6.385,3.213-10.778,9.813-10.778,17.43v46.429c0,4.25,3.449,7.699,7.699,7.699s7.699-3.449,7.699-7.699v-46.429
			c0-2.279,1.848-4.127,4.127-4.127h397.629c2.125,0,3.89,1.612,4.106,3.695l0.01,125.635H334.857c-4.26,0-7.699,3.449-7.699,7.699
			c0,4.26,3.439,7.699,7.699,7.699h124.074v40.034H225.995c-4.26,0-7.699,3.449-7.699,7.699c0,4.25,3.439,7.699,7.699,7.699h232.936
			v30.795c0,0.062,0,0.133,0.01,0.195v52.157c0,14.433-12.688,26.176-28.28,26.176H81.329c-15.593,0-28.27-11.743-28.27-26.176
			v-83.147H195.2c4.25,0,7.699-3.449,7.699-7.699c0-4.25-3.449-7.699-7.699-7.699H53.059v-40.034h251.002
			c4.25,0,7.699-3.439,7.699-7.699c0-4.25-3.449-7.699-7.699-7.699H53.059v-47.979c0-4.26-3.449-7.699-7.699-7.699
			s-7.699,3.439-7.699,7.699c0,47.237,0,157.109,0,201.956c0,22.922,19.586,41.574,43.668,41.574h349.332
			c24.082,0,43.678-18.652,43.678-41.574C474.338,467.418,474.318,195.965,474.318,190.528z M95.977,19.203l7.329,13.827
			c-4.599,1.93-10.049,1.93-14.648-0.01L95.977,19.203z M81.442,46.652c4.527,2.125,9.485,3.254,14.556,3.254
			c5.061,0,10.019-1.119,14.535-3.234l12.924,24.38H68.539L81.442,46.652z M88.309,171.722H63.837V86.45h24.472V171.722z
			 M128.159,171.722h-24.452V86.45h24.452V171.722z M175.737,19.203l7.329,13.827c-4.599,1.93-10.049,1.93-14.648-0.01
			L175.737,19.203z M161.202,46.652c4.527,2.125,9.485,3.254,14.556,3.254c5.061,0,10.019-1.119,14.535-3.234l12.934,24.38h-54.929
			L161.202,46.652z M168.069,171.722h-24.472V86.45h24.472V171.722z M207.857,86.902v84.821h-24.39V86.45h24.4
			C207.857,86.604,207.857,86.748,207.857,86.902z M255.384,19.727l7.34,13.848c-4.599,1.93-10.05,1.92-14.648-0.021L255.384,19.727
			z M240.849,47.186c4.527,2.135,9.495,3.254,14.566,3.254c5.061,0,10.019-1.119,14.535-3.233l12.924,24.38h-54.929L240.849,47.186z
			 M247.716,171.722h-24.39V86.984h24.39V171.722z M287.576,171.722h-24.462V86.984h24.462V171.722z M335.185,19.727l7.329,13.848
			c-4.599,1.93-10.05,1.92-14.648-0.021L335.185,19.727z M320.65,47.186c4.527,2.135,9.485,3.254,14.556,3.254
			s10.029-1.119,14.546-3.244l12.924,24.39h-54.929L320.65,47.186z M327.517,171.722h-24.472V86.984h24.472V171.722z
			 M367.366,171.722h-24.452V86.984h24.452V171.722z M414.904,19.727l7.34,13.848c-4.609,1.93-10.05,1.92-14.659-0.021
			L414.904,19.727z M400.369,47.186c4.527,2.135,9.495,3.254,14.566,3.254c5.061,0,10.019-1.119,14.535-3.233l12.924,24.38h-54.929
			L400.369,47.186z M407.236,171.722h-24.462V86.984h24.462V171.722z M447.095,171.722h-24.462V86.984h24.462V171.722z"/>
	</g>
</g>
<g>
</g>
<g>
</g>
<g>
</g>
<g>
</g>
<g>
</g>
<g>
</g>
<g>
</g>
<g>
</g>
<g>
</g>
<g>
</g>
<g>
</g>
<g>
</g>
<g>
</g>
<g>
</g>
<g>
</g>
</svg>
